<svg xmlns="http://www.w3.org/2000/svg" xmlns:xlink="http://www.w3.org/1999/xlink" x="0px" y="0px" width="32px" height="32px" viewBox="0 0 32 32"><g stroke-width="2" transform="translate(0, 0)"><path d="M8,19v4L5.414,25.586" fill="none" stroke="#444444" stroke-linecap="round" stroke-miterlimit="10" stroke-width="2" data-color="color-2" stroke-linejoin="round"></path><polyline points="26.586 25.586 24 23 24 19" fill="none" stroke="#444444" stroke-linecap="round" stroke-miterlimit="10" stroke-width="2" data-color="color-2" stroke-linejoin="round"></polyline><line x1="16" y1="27" x2="16" y2="24" fill="none" stroke="#444444" stroke-linecap="round" stroke-miterlimit="10" stroke-width="2" data-color="color-2" stroke-linejoin="round"></line><circle cx="4" cy="27" r="2" fill="none" stroke="#444444" stroke-linecap="round" stroke-miterlimit="10" stroke-width="2" data-color="color-2" stroke-linejoin="round"></circle><circle cx="16" cy="29" r="2" fill="none" stroke="#444444" stroke-linecap="round" stroke-miterlimit="10" stroke-width="2" data-color="color-2" stroke-linejoin="round"></circle><circle cx="28" cy="27" r="2" fill="none" stroke="#444444" stroke-linecap="round" stroke-miterlimit="10" stroke-width="2" data-color="color-2" stroke-linejoin="round"></circle><circle cx="16" cy="16" r="4" fill="none" stroke="#444444" stroke-linecap="round" stroke-miterlimit="10" stroke-width="2" stroke-linejoin="round"></circle><path d="M31,17V14l-4.306-.538a10.9,10.9,0,0,0-1.339-3.227l2.666-3.427L25.192,3.979,21.765,6.645a10.9,10.9,0,0,0-3.227-1.339L18,1H14l-.538,4.306a10.9,10.9,0,0,0-3.227,1.339L6.808,3.979,3.979,6.808l2.666,3.427a10.9,10.9,0,0,0-1.339,3.227L1,14v3" fill="none" stroke="#444444" stroke-linecap="round" stroke-miterlimit="10" stroke-width="2" stroke-linejoin="round"></path></g></svg>